<?xml version="1.0" encoding="UTF-8" standalone="no"?>
<svg
   version="1.0"
   width="1024pt"
   height="1024pt"
   viewBox="0 0 1024 1024"
   preserveAspectRatio="xMidYMid"
   id="svg12"
   sodipodi:docname="ava.svg"
   inkscape:version="1.2.1 (9c6d41e410, 2022-07-14)"
   xmlns:inkscape="http://www.inkscape.org/namespaces/inkscape"
   xmlns:sodipodi="http://sodipodi.sourceforge.net/DTD/sodipodi-0.dtd"
   xmlns:xlink="http://www.w3.org/1999/xlink"
   xmlns="http://www.w3.org/2000/svg"
   xmlns:svg="http://www.w3.org/2000/svg">
  <defs
     id="defs16">
    <linearGradient
       id="linearGradient1054">
      <stop
         style="stop-color:#8b08d2;stop-opacity:1;"
         offset="0"
         id="stop1052" />
      <stop
         style="stop-color:#af08ac;stop-opacity:1;"
         offset="1"
         id="stop1050" />
    </linearGradient>
    <linearGradient
       id="linearGradient938">
      <stop
         style="stop-color:#8b08d2;stop-opacity:1;"
         offset="0"
         id="stop936" />
      <stop
         style="stop-color:#af08ac;stop-opacity:1;"
         offset="1"
         id="stop934" />
    </linearGradient>
    <inkscape:path-effect
       effect="fillet_chamfer"
       id="path-effect311"
       is_visible="true"
       lpeversion="1"
       nodesatellites_param="F,1,0,1,0,0.06,0,1 @ F,1,0,1,0,0.06,0,1 @ F,1,0,1,0,0.06,0,1 @ F,1,0,1,0,0.06,0,1"
       unit="px"
       method="auto"
       mode="F"
       radius="6"
       chamfer_steps="1"
       flexible="true"
       use_knot_distance="true"
       apply_no_radius="true"
       apply_with_radius="true"
       only_selected="false"
       hide_knots="false" />
    <linearGradient
       id="linearGradient5919">
      <stop
         style="stop-color:#8b08d2;stop-opacity:1;"
         offset="0"
         id="stop5917" />
      <stop
         style="stop-color:#af08ac;stop-opacity:1;"
         offset="1"
         id="stop5915" />
    </linearGradient>
    <linearGradient
       inkscape:collect="always"
       xlink:href="#linearGradient938"
       id="linearGradient904"
       x1="920"
       y1="5635"
       x2="9631.2969"
       y2="5635"
       gradientUnits="userSpaceOnUse" />
    <linearGradient
       inkscape:collect="always"
       xlink:href="#linearGradient938"
       id="linearGradient5913"
       gradientUnits="userSpaceOnUse"
       x1="5384.981"
       y1="10099.994"
       x2="5384.981"
       y2="1170.0192" />
    <linearGradient
       inkscape:collect="always"
       xlink:href="#linearGradient5919"
       id="linearGradient1281"
       gradientUnits="userSpaceOnUse"
       x1="5384.981"
       y1="10099.994"
       x2="5384.981"
       y2="1170.0192" />
    <linearGradient
       inkscape:collect="always"
       xlink:href="#linearGradient1054"
       id="linearGradient1283"
       gradientUnits="userSpaceOnUse"
       x1="5384.981"
       y1="10099.994"
       x2="5384.981"
       y2="1170.0192" />
    <inkscape:path-effect
       effect="fillet_chamfer"
       id="path-effect311-7"
       is_visible="true"
       lpeversion="1"
       nodesatellites_param="F,1,0,1,0,0.06,0,1 @ F,1,0,1,0,0.06,0,1 @ F,1,0,1,0,0.06,0,1 @ F,1,0,1,0,0.06,0,1"
       unit="px"
       method="auto"
       mode="F"
       radius="6"
       chamfer_steps="1"
       flexible="true"
       use_knot_distance="true"
       apply_no_radius="true"
       apply_with_radius="true"
       only_selected="false"
       hide_knots="false" />
    <clipPath
       clipPathUnits="userSpaceOnUse"
       id="clipPath7832">
      <g
         inkscape:label="Clip"
         id="use7834">
        <path
           id="path7878"
           style="fill:#ffffff;fill-opacity:0;fill-rule:nonzero;stroke-width:7.9271;image-rendering:auto"
           d="m 415,455 c 3413.3326,0 6826.667,0 10240,0 0,3413.3332 0,6826.6668 0,10240 -3413.333,0 -6826.6674,0 -10240,0 0,-3413.3332 0,-6826.6668 0,-10240 z" />
      </g>
    </clipPath>
    <inkscape:path-effect
       effect="fillet_chamfer"
       id="path-effect311-3"
       is_visible="true"
       lpeversion="1"
       nodesatellites_param="F,1,0,1,0,0.06,0,1 @ F,1,0,1,0,0.06,0,1 @ F,1,0,1,0,0.06,0,1 @ F,1,0,1,0,0.06,0,1"
       unit="px"
       method="auto"
       mode="F"
       radius="6"
       chamfer_steps="1"
       flexible="true"
       use_knot_distance="true"
       apply_no_radius="true"
       apply_with_radius="true"
       only_selected="false"
       hide_knots="false" />
  </defs>
  <sodipodi:namedview
     id="namedview14"
     pagecolor="#ffffff"
     bordercolor="#000000"
     borderopacity="0.25"
     inkscape:showpageshadow="2"
     inkscape:pageopacity="0.0"
     inkscape:pagecheckerboard="0"
     inkscape:deskcolor="#d1d1d1"
     inkscape:document-units="pt"
     showgrid="false"
     inkscape:zoom="0.5"
     inkscape:cx="1015"
     inkscape:cy="698"
     inkscape:window-width="1920"
     inkscape:window-height="1011"
     inkscape:window-x="0"
     inkscape:window-y="0"
     inkscape:window-maximized="1"
     inkscape:current-layer="svg12" />
  <metadata
     id="metadata2">
Created by potrace 1.16, written by Peter Selinger 2001-2019
</metadata>
  <g
     transform="matrix(0.1,0,0,-0.1,-41.5,1069.5)"
     fill="#000000"
     stroke="none"
     id="g10"
     style="fill:url(#linearGradient904);fill-opacity:1;fill-rule:nonzero"
     inkscape:label="g10">
    <path
       id="rect1223"
       style="fill:#ffffff;fill-opacity:1;stroke-width:7.9271;image-rendering:auto"
       d="m 1029.4,455 h 9011.2 a 614.4,614.4 45 0 1 614.4,614.4 l 0,9011.2 a 614.4,614.4 135 0 1 -614.4,614.4 H 1029.4 A 614.4,614.4 45 0 1 415,10080.6 l 0,-9011.2 A 614.4,614.4 135 0 1 1029.4,455 Z"
       inkscape:original-d="m 415,455 c 3413.3326,0 6826.6674,0 10240,0 0,3413.3332 0,6826.6668 0,10240 -3413.3326,0 -6826.6674,0 -10240,0 0,-3413.3332 0,-6826.6668 0,-10240 z"
       inkscape:path-effect="#path-effect311" />
    <g
       id="g5408"
       style="fill:url(#linearGradient5913);fill-opacity:1"
       transform="translate(325,-45)"
       inkscape:label="g5408">
      <path
         d="m 5730,9945 c 0,-97 4,-155 10,-155 6,0 10,-86 10,-237 0,-158 4,-233 10,-223 5,8 11,13 12,10 2,-5 15,-334 24,-615 3,-115 9,-172 17,-177 8,-5 13,-63 15,-195 2,-103 8,-192 13,-197 5,-6 9,-90 9,-187 0,-133 3,-178 13,-181 9,-4 13,-48 15,-164 2,-87 7,-164 12,-169 11,-13 15,-228 6,-244 -5,-8 -322,-11 -1081,-11 -969,0 -1072.0129,13.1068 -1083.0114,13.8506 5.6364,452.7696 5.3435,1133.3278 2.4855,1564.633 526.4752,103.2263 861.0725,196.7502 1264.4427,312.8938 C 4820.2137,9411.3658 4800.7358,9584.7322 4782,9650 3347.9493,9200.4053 2501.0464,9115.7128 1278,9063 c 146.5073,-166.4442 310.4816,-427.5324 382.188,-624.8202 563.804,84.7744 1073.2104,153.8967 1532.1826,238.8311 7.9687,-497.0558 11.6919,-944.779 7.3827,-1474.9985 -319.0573,1.1601 -639.6962,0.6399 -958.7533,1.9876 -935,4 -1145,10 -1188,34 -12,7 -47,12 -77,12 h -56 v -282 c 0,-219 3,-279 12,-270 7,7 42,12 85,12 42,0 73,4 73,10 0,6 39,10 98,10 54,0 122,7 152,15 47,12 192,15 947,15 872,0 893,0 903,-19 7,-13 10,-339 10,-988 v -968 l -24,-22 c -13,-13 -33,-23 -44,-23 -12,0 -24,-4 -27,-10 -3,-5 -17,-10 -29,-10 -13,0 -29,-7 -36,-15 -7,-8 -21,-15 -31,-15 -11,0 -19,-4 -19,-10 0,-5 -13,-10 -29,-10 -16,0 -34,-7 -41,-15 -7,-8 -21,-15 -31,-15 -10,0 -20,-4 -23,-9 -3,-5 -22,-12 -41,-15 -19,-4 -35,-11 -35,-16 0,-6 -13,-10 -30,-10 -16,0 -30,-4 -30,-10 0,-5 -7,-10 -15,-10 -8,0 -29,-6 -47,-14 -18,-8 -49,-21 -70,-30 -20,-9 -43,-16 -52,-16 -9,0 -16,-4 -16,-10 0,-5 -16,-10 -35,-10 -19,0 -35,-4 -35,-10 0,-5 -8,-10 -17,-10 -10,0 -31,-7 -47,-15 -15,-8 -36,-15 -46,-15 -10,0 -31,-7 -46,-15 -16,-8 -39,-15 -51,-15 -13,0 -23,-4 -23,-10 0,-5 -14,-10 -31,-10 -17,0 -37,-7 -45,-15 -9,-8 -28,-15 -44,-15 -16,0 -32,-4 -35,-10 -3,-5 -21,-10 -40,-10 -20,0 -35,-6 -39,-15 -3,-9 -18,-15 -40,-15 -19,0 -38,-5 -41,-10 -3,-5 -21,-10 -38,-10 -18,0 -41,-7 -51,-15 -11,-8 -35,-15 -53,-15 -18,0 -33,-4 -33,-10 0,-5 -17,-10 -39,-10 -22,0 -44,-6 -51,-15 -8,-9 -30,-15 -56,-15 -24,0 -44,-4 -44,-10 0,-5 -13,-10 -29,-10 -16,0 -45,-7 -64,-15 -20,-8 -52,-15 -72,-15 -19,0 -35,-4 -35,-10 0,-5 -23,-12 -50,-16 -28,-4 -50,-10 -50,-15 0,-5 -29,-9 -65,-9 -36,0 -65,-4 -65,-9 0,-4 -27,-11 -60,-15 -57,-7 -59,-8 -47,-28 6,-11 22,-32 34,-46 13,-14 23,-33 23,-43 0,-11 7,-19 15,-19 8,0 15,-7 15,-15 0,-8 5,-15 10,-15 6,0 10,-8 10,-17 0,-10 12,-29 25,-42 14,-13 25,-28 25,-35 0,-6 11,-23 25,-38 14,-15 25,-34 25,-41 0,-8 6,-17 13,-20 8,-3 22,-21 31,-41 9,-20 21,-36 26,-36 6,0 10,-7 10,-15 0,-8 5,-15 10,-15 6,0 10,-5 10,-11 0,-6 14,-28 30,-49 16,-21 30,-43 30,-49 0,-6 5,-11 10,-11 6,0 10,-7 10,-15 0,-18 36,-20 55,-2 35,31 45,37 60,37 9,0 18,7 21,15 4,8 15,15 25,15 10,0 19,5 19,10 0,6 9,10 19,10 11,0 22,4 25,9 3,5 36,24 73,43 38,18 70,36 71,41 2,4 9,7 16,7 6,0 47,18 90,40 43,22 84,40 92,40 8,0 14,5 14,10 0,6 14,10 30,10 18,0 33,6 36,15 4,8 12,15 19,15 6,0 33,11 59,25 26,14 58,25 72,25 13,0 24,4 24,8 0,10 71,42 93,42 10,0 17,4 17,10 0,5 16,12 35,16 19,3 35,10 35,15 0,5 12,9 26,9 14,0 32,7 40,15 9,8 24,15 34,15 10,0 22,5 25,10 3,6 17,10 29,10 13,0 29,7 36,15 7,8 25,15 41,15 16,0 29,5 29,10 0,6 14,10 30,10 18,0 33,6 36,15 4,8 17,15 29,15 13,0 27,5 30,10 3,6 16,10 29,10 12,0 31,7 42,15 10,8 31,15 47,15 15,0 27,5 27,10 0,6 13,10 29,10 16,0 34,7 41,15 7,8 26,15 42,15 16,0 39,6 51,14 12,7 38,16 59,19 31,5 37,2 42,-16 3,-12 4,-494 3,-1071 -2,-829 -5,-1050 -14,-1054 -7,-2 -13,-19 -13,-37 0,-19 -4,-37 -10,-40 -5,-3 -10,-15 -10,-26 0,-11 -7,-22 -15,-25 -8,-4 -15,-17 -15,-30 0,-15 -6,-24 -15,-24 -8,0 -15,-4 -15,-9 0,-5 -21,-20 -47,-33 -27,-13 -49,-26 -51,-30 -2,-5 -26,-8 -53,-8 -29,0 -48,-4 -44,-9 10,-17 -82,-24 -233,-19 -96,4 -147,9 -150,17 -2,7 -42,11 -122,11 -65,0 -121,4 -124,8 -3,5 -47,12 -98,15 -51,3 -94,11 -96,17 -2,5 -31,10 -66,10 -34,0 -67,5 -74,12 -6,6 -15,8 -19,3 -5,-4 -2,-10 5,-12 6,-3 12,-13 12,-23 0,-10 7,-20 15,-24 8,-3 15,-14 15,-25 0,-11 5,-23 10,-26 6,-3 10,-17 10,-31 0,-14 7,-32 15,-40 8,-9 15,-26 15,-39 0,-13 4,-27 10,-30 5,-3 10,-21 10,-38 0,-18 7,-41 15,-51 9,-12 15,-42 15,-73 0,-29 5,-53 10,-53 6,0 10,-47 10,-120 v -120 h 139 c 86,0 141,4 143,10 2,6 43,11 98,11 52,1 119,8 148,15 29,8 83,14 120,14 38,0 72,4 78,10 5,5 42,12 82,16 40,4 75,11 78,15 3,5 27,9 55,9 27,0 49,4 49,9 0,8 64,26 137,38 18,3 38,11 44,19 6,8 22,14 35,14 12,0 26,5 29,10 3,6 15,10 26,10 10,0 19,5 19,10 0,6 6,10 14,10 8,0 21,6 28,12 16,15 47,35 68,45 15,7 71,63 118,117 12,14 22,32 22,40 0,8 3,16 8,18 13,6 42,69 42,93 0,13 4,25 9,27 8,2 16,43 20,101 1,5 5,6 9,3 15,-9 22,357 28,1494 4,695 10,1100 17,1108 5,6 18,12 28,12 11,0 19,5 19,10 0,6 11,10 24,10 13,0 29,7 36,15 7,8 23,15 36,15 13,0 24,5 24,10 0,6 9,10 19,10 11,0 32,6 48,14 15,8 42,19 58,26 17,7 43,18 58,26 16,8 35,14 43,14 14,0 22,3 82,33 19,9 42,17 52,17 9,0 23,7 30,15 7,8 23,15 36,15 12,0 26,5 29,10 3,6 17,10 31,10 13,0 24,4 24,10 0,5 16,12 35,16 19,3 38,10 41,15 3,5 16,9 28,9 13,0 29,7 36,15 7,8 25,15 41,15 16,0 29,5 29,10 0,6 14,10 30,10 17,0 30,4 30,9 0,9 88,41 115,41 8,0 18,7 21,15 4,9 19,15 40,15 19,0 34,5 34,10 0,6 13,10 29,10 16,0 34,7 41,15 7,8 23,15 36,15 12,0 26,5 29,10 3,6 17,10 31,10 14,0 32,7 40,15 9,8 29,15 45,15 16,0 29,4 29,9 0,5 16,12 36,15 l 36,7 -7,67 c -3,37 -8,167 -11,290 -3,122 -8,222 -12,221 -4,0 -20,-9 -37,-19 -51,-32 -87,-50 -100,-50 -7,0 -15,-7 -19,-15 -3,-8 -11,-15 -17,-15 -19,0 -89,-33 -89,-42 0,-4 -11,-8 -25,-8 -14,0 -25,-4 -25,-10 0,-5 -8,-10 -19,-10 -10,0 -24,-7 -31,-15 -7,-8 -18,-15 -25,-15 -16,0 -79,-32 -83,-42 -2,-5 -17,-8 -33,-8 -16,0 -29,-4 -29,-10 0,-5 -9,-10 -19,-10 -11,0 -26,-7 -35,-15 -8,-8 -22,-15 -31,-15 -9,0 -23,-7 -31,-15 -9,-8 -26,-15 -40,-15 -13,0 -24,-4 -24,-10 0,-5 -9,-10 -21,-10 -11,0 -27,-7 -35,-15 -9,-8 -24,-15 -34,-15 -10,0 -22,-4 -25,-10 -3,-6 -17,-10 -31,-10 -14,0 -32,-7 -40,-15 -9,-8 -24,-15 -34,-15 -10,0 -22,-4 -25,-10 -3,-5 -17,-10 -31,-10 -14,0 -27,-7 -30,-15 -4,-8 -19,-15 -34,-15 -16,0 -32,-4 -35,-10 -3,-5 -17,-10 -29,-10 -13,0 -29,-7 -36,-15 -7,-8 -25,-15 -41,-15 -16,0 -29,-4 -29,-10 0,-5 -11,-10 -24,-10 -13,0 -29,-7 -36,-15 -7,-8 -25,-15 -40,-15 -15,0 -33,-7 -40,-15 -7,-8 -25,-15 -41,-15 -15,0 -31,-4 -34,-10 -10,-16 -42,-12 -49,6 -8,20 -8,1722 0,1752 l 6,22 h 1088 c 1040,0 1088,-1 1103,-18 13,-15 17,-39 17,-113 1,-67 5,-100 15,-113 11,-15 15,-48 15,-122 0,-58 4,-106 10,-109 6,-3 10,-44 10,-89 0,-49 6,-101 15,-126 8,-24 15,-77 15,-121 0,-46 4,-79 10,-79 6,0 10,-31 10,-72 1,-44 6,-83 15,-98 8,-14 14,-53 15,-90 0,-37 4,-70 9,-75 5,-6 12,-39 15,-74 4,-35 11,-72 16,-82 6,-10 10,-45 10,-78 0,-32 5,-61 10,-63 6,-2 13,-33 17,-71 3,-37 10,-67 14,-67 5,0 9,-27 9,-59 0,-36 5,-61 12,-63 6,-2 13,-30 16,-61 2,-32 8,-60 13,-63 5,-3 9,-25 9,-50 0,-27 6,-52 15,-60 8,-9 15,-33 15,-55 0,-21 5,-39 10,-39 6,0 10,-19 10,-42 0,-24 7,-52 15,-62 8,-11 15,-34 15,-52 0,-18 5,-36 10,-39 6,-3 10,-24 10,-46 0,-28 4,-39 15,-39 11,0 15,-11 15,-39 0,-22 5,-43 10,-46 6,-3 10,-21 10,-38 0,-18 7,-41 15,-51 8,-11 15,-30 15,-42 0,-13 5,-26 10,-29 6,-3 10,-20 10,-36 0,-17 6,-32 15,-35 8,-4 15,-17 15,-30 0,-13 4,-32 9,-42 10,-19 32,-71 51,-117 26,-65 38,-92 62,-141 19,-39 22,-55 14,-67 -6,-8 -18,-25 -26,-37 -8,-13 -25,-33 -37,-46 -13,-13 -23,-28 -23,-34 0,-5 -6,-10 -13,-10 -7,0 -19,-11 -27,-24 -41,-65 -542,-579 -660,-676 -64,-52 -112,-95 -149,-130 -14,-14 -44,-39 -66,-55 -21,-17 -46,-37 -55,-45 -9,-8 -29,-24 -45,-35 -16,-11 -41,-31 -55,-45 -15,-14 -40,-32 -56,-40 -15,-8 -36,-22 -44,-30 -40,-37 -71,-60 -81,-60 -5,0 -21,-11 -35,-25 -14,-14 -29,-25 -34,-25 -5,0 -21,-11 -36,-25 -15,-14 -32,-25 -38,-25 -6,0 -23,-11 -38,-25 -15,-14 -32,-25 -38,-25 -6,0 -18,-6 -25,-12 -34,-30 -45,-38 -55,-38 -10,0 -21,-8 -55,-37 -7,-7 -20,-13 -28,-13 -8,0 -17,-7 -21,-15 -3,-8 -15,-15 -26,-15 -11,0 -20,-4 -20,-10 0,-5 -7,-10 -15,-10 -8,0 -15,-4 -15,-10 0,-5 -11,-12 -25,-16 -14,-3 -25,-10 -25,-14 0,-4 -11,-11 -25,-14 -14,-4 -25,-11 -25,-16 0,-6 -11,-10 -25,-10 -14,0 -25,-4 -25,-10 0,-5 -9,-10 -20,-10 -11,0 -23,-7 -26,-15 -4,-8 -14,-15 -24,-15 -10,0 -23,-7 -30,-15 -7,-8 -21,-15 -31,-15 -11,0 -19,-4 -19,-10 0,-5 -11,-10 -24,-10 -13,0 -26,-3 -28,-7 -1,-5 -21,-16 -43,-27 -22,-10 -52,-25 -67,-32 -14,-8 -33,-14 -42,-14 -9,0 -16,-4 -16,-10 0,-5 -12,-10 -26,-10 -14,0 -32,-7 -40,-15 -9,-8 -26,-15 -40,-15 -13,0 -24,-4 -24,-9 0,-5 -12,-12 -27,-14 -23,-3 -21,-4 10,-6 20,0 37,-5 37,-11 0,-5 10,-10 23,-10 13,0 32,-7 43,-15 10,-8 28,-15 39,-15 11,0 29,-7 39,-15 11,-8 28,-15 38,-15 10,0 18,-4 18,-10 0,-5 11,-10 25,-10 14,0 25,-4 25,-9 0,-5 14,-12 30,-16 17,-4 30,-11 30,-16 0,-5 9,-9 20,-9 11,0 23,-7 26,-15 4,-8 15,-15 25,-15 10,0 19,-4 19,-8 0,-4 12,-13 28,-19 40,-18 92,-49 119,-73 13,-11 30,-20 38,-20 9,0 18,-7 21,-15 4,-8 12,-15 20,-15 8,0 14,-4 14,-10 0,-18 28,-10 51,15 13,13 30,25 37,25 7,0 10,5 7,10 -3,5 3,10 13,10 11,0 22,6 25,13 3,8 21,22 41,31 20,9 36,21 36,26 0,6 5,10 10,10 6,0 23,11 38,25 15,14 31,25 36,25 5,0 19,11 32,25 13,14 28,25 34,25 5,0 10,5 10,10 0,6 9,10 20,10 11,0 20,7 20,15 0,8 5,15 10,15 6,0 23,11 38,25 15,14 32,25 39,25 7,0 13,3 13,8 0,4 23,23 50,42 27,19 50,38 50,43 0,4 4,7 9,7 9,0 41,24 82,62 10,10 21,18 24,18 5,0 45,33 71,58 7,6 17,12 23,12 5,0 36,25 67,55 32,30 62,55 66,55 5,0 23,13 41,29 79,72 103,91 115,91 6,0 12,7 12,15 0,8 4,15 9,15 6,0 29,19 53,43 24,24 59,52 78,64 19,12 42,31 50,42 8,12 18,21 21,21 4,0 29,21 56,48 26,26 68,63 93,83 25,20 94,84 154,143 60,58 112,106 115,106 3,1 24,19 46,40 22,22 43,40 48,40 4,0 7,7 7,15 0,8 5,15 11,15 6,0 37,27 70,60 32,33 63,60 69,60 5,0 10,7 10,15 0,8 6,15 14,15 8,0 16,5 18,12 6,17 28,0 28,-22 0,-10 7,-20 15,-24 8,-3 15,-13 15,-21 0,-9 6,-23 13,-30 31,-35 37,-45 37,-60 0,-8 5,-15 10,-15 6,0 10,-9 10,-20 0,-10 6,-23 13,-27 6,-4 20,-24 31,-43 41,-77 70,-126 90,-155 25,-36 46,-74 46,-86 0,-4 11,-20 25,-35 14,-15 25,-33 25,-40 0,-7 11,-25 25,-40 14,-15 25,-31 25,-36 0,-5 6,-16 13,-23 26,-30 37,-44 37,-50 0,-6 78,-116 89,-125 4,-3 19,-25 35,-50 16,-25 35,-49 43,-53 7,-4 13,-14 13,-21 0,-7 23,-36 50,-65 28,-29 50,-56 50,-59 0,-4 11,-19 25,-34 14,-15 25,-29 25,-31 0,-10 140,-143 145,-139 3,3 5,0 5,-7 0,-14 187,-201 201,-201 5,0 9,-4 9,-9 0,-5 8,-12 18,-15 9,-3 33,-20 52,-36 19,-17 50,-38 68,-47 17,-8 32,-22 32,-29 0,-8 10,-14 25,-14 14,0 25,-4 25,-10 0,-5 11,-12 25,-16 14,-3 25,-10 25,-15 0,-5 7,-9 15,-9 8,0 15,-4 15,-10 0,-5 8,-10 19,-10 10,0 24,-7 31,-15 7,-8 21,-15 31,-15 10,0 20,-4 24,-9 3,-5 19,-12 35,-16 17,-4 30,-11 30,-16 0,-5 16,-9 35,-9 19,0 35,-4 35,-9 0,-5 21,-12 48,-16 26,-4 52,-11 59,-16 6,-6 71,-11 145,-12 131,-2 136,-1 194,28 32,16 69,40 80,52 12,13 25,23 29,23 12,0 58,51 83,92 13,21 27,38 32,38 4,0 15,16 24,35 9,19 20,35 24,35 4,0 16,18 26,40 11,22 23,40 28,40 4,0 8,6 8,14 0,17 32,80 43,84 4,2 7,15 7,28 0,13 4,24 9,24 5,0 12,11 15,25 4,14 11,25 16,25 6,0 10,8 10,18 0,17 17,60 41,104 5,10 9,26 9,35 0,10 7,27 15,37 8,11 15,30 15,42 0,13 5,26 10,29 6,3 10,19 10,34 0,16 7,34 15,41 8,7 15,25 15,41 0,16 5,29 10,29 6,0 10,15 10,33 0,17 7,41 15,51 8,11 15,34 15,52 0,18 5,36 10,39 6,3 10,19 10,34 0,16 7,34 15,41 37,31 6,110 -43,110 -11,0 -24,5 -27,10 -3,6 -17,10 -30,10 -13,0 -27,5 -30,10 -4,6 -29,20 -56,32 -27,12 -49,25 -49,30 0,4 -9,8 -20,8 -12,0 -31,9 -43,21 -12,11 -42,30 -67,42 -25,12 -55,32 -67,44 -12,13 -29,23 -38,23 -8,0 -15,5 -15,10 0,6 -5,10 -11,10 -7,0 -17,7 -24,17 -24,33 -35,4 -35,-92 0,-52 -4,-97 -10,-100 -5,-3 -10,-35 -10,-71 0,-36 -5,-75 -12,-87 -12,-21 -23,-82 -34,-179 -3,-26 -12,-52 -20,-59 -8,-6 -14,-24 -14,-40 0,-15 -4,-31 -10,-34 -5,-3 -10,-15 -10,-25 0,-10 -7,-25 -15,-34 -8,-8 -15,-19 -15,-25 0,-39 -124,-181 -157,-181 -11,0 -23,-4 -28,-9 -19,-17 -72,-20 -99,-5 -16,8 -41,14 -56,14 -16,0 -43,8 -62,17 -60,30 -68,33 -82,33 -7,0 -19,7 -26,15 -7,8 -21,15 -31,15 -11,0 -19,3 -19,8 0,4 -19,16 -41,27 -23,10 -51,29 -62,42 -12,12 -28,23 -34,23 -7,0 -13,5 -13,10 0,6 -5,10 -12,10 -6,0 -28,18 -49,40 -21,22 -43,40 -49,40 -5,0 -10,5 -10,10 0,6 -4,10 -9,10 -8,0 -36,26 -98,95 -7,7 -13,16 -13,18 0,3 -29,36 -65,73 -36,38 -65,72 -65,76 0,7 -28,43 -57,74 -7,7 -13,18 -13,24 0,6 -11,21 -24,33 -13,12 -26,32 -30,45 -4,12 -12,22 -17,22 -5,0 -9,7 -9,15 0,8 -4,15 -8,15 -5,0 -17,18 -28,40 -10,22 -22,40 -26,40 -5,0 -8,6 -8,14 0,7 -7,19 -15,26 -8,7 -15,19 -15,27 0,8 -6,21 -12,28 -32,35 -38,45 -38,60 0,8 -4,15 -8,15 -9,0 -42,70 -42,88 0,7 -4,12 -10,12 -5,0 -12,11 -16,25 -3,14 -10,25 -15,25 -5,0 -9,11 -9,25 0,16 -6,25 -15,25 -9,0 -15,9 -15,25 0,14 -4,25 -10,25 -5,0 -10,11 -10,24 0,13 -7,26 -15,30 -8,3 -15,14 -15,25 0,11 -4,23 -10,26 -5,3 -10,15 -10,26 0,11 -7,22 -15,25 -8,4 -15,17 -15,30 0,13 -4,24 -10,24 -5,0 -10,8 -10,18 0,10 -7,27 -15,38 -8,10 -15,29 -15,41 0,12 -4,23 -10,25 -5,1 -12,17 -16,33 -4,23 0,37 20,60 15,17 29,38 32,48 3,9 10,17 15,17 5,0 9,6 9,14 0,8 7,16 15,20 8,3 15,15 15,26 0,11 5,20 10,20 6,0 10,7 10,15 0,8 7,15 15,15 8,0 15,8 15,19 0,10 11,30 25,45 14,15 25,34 25,42 0,7 5,14 10,14 6,0 10,7 10,15 0,8 4,15 10,15 5,0 17,16 26,36 9,20 23,38 31,41 7,3 13,12 13,21 0,8 11,30 25,48 14,18 25,37 25,43 0,6 4,11 9,11 5,0 11,8 15,18 6,18 27,53 37,62 3,3 9,12 12,20 4,8 16,29 27,45 11,17 23,37 27,45 3,8 9,17 12,20 9,7 28,40 48,80 9,19 23,39 30,43 7,4 13,17 13,27 0,11 5,20 10,20 6,0 10,6 10,14 0,8 6,21 13,28 7,7 21,30 30,51 10,20 22,37 27,37 6,0 10,11 10,25 0,14 4,25 8,25 5,0 17,18 28,40 10,22 22,40 25,40 4,0 10,11 13,25 4,14 11,25 16,25 6,0 10,6 10,14 0,18 32,76 43,76 4,0 7,11 7,25 0,14 3,25 8,25 4,0 23,34 42,75 19,41 38,75 43,75 4,0 7,8 7,19 0,10 7,24 15,31 8,7 15,21 15,31 0,11 5,19 10,19 6,0 10,6 10,14 0,17 61,140 72,144 4,2 8,10 8,18 0,7 10,30 21,51 12,21 31,55 41,76 11,20 24,37 28,37 4,0 15,16 24,35 9,19 21,35 26,35 6,0 10,5 10,11 0,11 60,69 72,69 5,0 8,6 8,13 0,7 16,19 35,27 19,7 36,19 39,27 3,7 15,13 26,13 11,0 20,5 20,10 0,6 6,10 14,10 8,0 16,7 20,15 3,8 14,15 24,15 10,0 24,11 32,24 11,21 10,27 -3,40 -9,9 -20,16 -26,16 -11,0 -77,41 -103,64 -10,9 -24,16 -30,17 -7,0 -26,9 -43,20 -16,11 -38,22 -47,25 -10,4 -18,10 -18,14 0,4 -11,11 -25,14 -14,4 -25,11 -25,16 0,6 -9,10 -19,10 -11,0 -21,3 -23,8 -3,6 -32,24 -100,59 -16,8 -28,19 -28,24 0,5 -11,9 -25,9 -14,0 -25,5 -25,10 0,6 -9,10 -20,10 -11,0 -23,7 -26,15 -4,8 -12,15 -20,15 -8,0 -14,4 -14,9 0,5 -11,12 -25,15 -14,4 -25,11 -25,16 0,6 -9,10 -20,10 -11,0 -23,7 -26,15 -9,23 -31,18 -38,-10 -4,-14 -11,-25 -16,-25 -6,0 -10,-25 -10,-55 0,-30 -4,-55 -9,-55 -5,0 -11,-23 -13,-52 -3,-29 -11,-54 -17,-56 -6,-2 -11,-18 -11,-36 0,-18 -5,-37 -11,-43 -6,-6 -12,-26 -13,-44 -1,-18 -8,-35 -14,-37 -7,-2 -12,-19 -12,-39 0,-19 -7,-41 -15,-49 -8,-9 -15,-29 -15,-45 0,-16 -4,-29 -10,-29 -5,0 -10,-12 -10,-27 0,-16 -7,-37 -15,-47 -8,-11 -15,-30 -15,-43 0,-13 -4,-23 -10,-23 -5,0 -10,-15 -10,-34 0,-21 -6,-36 -15,-40 -8,-3 -15,-17 -15,-31 0,-14 -4,-25 -10,-25 -5,0 -10,-11 -10,-24 0,-13 -7,-29 -15,-36 -8,-7 -15,-23 -15,-36 0,-13 -4,-24 -10,-24 -5,0 -10,-11 -10,-25 0,-14 -7,-28 -15,-31 -9,-4 -15,-19 -15,-35 0,-16 -4,-29 -10,-29 -5,0 -10,-8 -10,-19 0,-10 -7,-24 -15,-31 -8,-7 -15,-23 -15,-36 0,-13 -4,-24 -10,-24 -5,0 -10,-9 -10,-20 0,-11 -7,-23 -15,-26 -8,-4 -15,-14 -15,-24 0,-20 -30,-83 -42,-88 -5,-2 -8,-10 -8,-17 0,-17 -33,-75 -42,-75 -5,0 -8,-6 -8,-14 0,-18 -32,-76 -42,-76 -5,0 -8,-9 -8,-19 0,-11 -4,-23 -10,-26 -5,-3 -18,-23 -28,-43 -9,-20 -38,-68 -63,-107 -25,-38 -48,-78 -52,-87 -3,-10 -11,-18 -17,-18 -5,0 -10,-7 -10,-16 0,-8 -6,-22 -12,-29 -29,-32 -38,-45 -38,-52 0,-5 -11,-20 -25,-35 -14,-15 -25,-32 -25,-38 0,-5 -4,-10 -10,-10 -5,0 -10,-6 -10,-12 0,-7 -13,-27 -28,-45 -15,-17 -33,-39 -40,-50 -9,-13 -14,-15 -18,-5 -3,7 -12,19 -20,26 -8,8 -14,26 -14,39 0,14 -7,30 -15,37 -8,7 -15,25 -15,40 0,16 -4,30 -9,32 -5,2 -12,19 -15,38 -3,19 -10,36 -15,38 -6,2 -11,19 -11,37 0,19 -4,36 -9,39 -4,3 -11,24 -15,46 -3,22 -11,40 -16,40 -6,0 -10,18 -10,39 0,22 -4,42 -9,46 -6,3 -13,26 -17,50 -3,25 -10,48 -15,51 -5,3 -9,22 -9,42 0,20 -7,46 -15,56 -8,11 -15,37 -15,57 0,21 -4,41 -10,44 -5,3 -10,28 -10,55 0,28 -5,50 -12,52 -6,2 -13,30 -16,61 -2,32 -8,60 -13,63 -5,3 -9,26 -9,52 0,26 -7,56 -15,66 -9,12 -15,42 -15,72 0,29 -4,56 -10,59 -5,3 -10,33 -10,66 0,40 -5,65 -15,75 -11,11 -15,37 -15,89 0,41 -4,77 -10,80 -5,3 -10,39 -10,78 -1,43 -6,82 -15,97 -9,15 -14,54 -15,100 0,42 -4,80 -10,86 -5,5 -12,54 -15,108 -3,54 -10,107 -15,117 -6,10 -10,76 -10,148 0,81 -4,131 -10,131 -14,0 -12,84 2,98 9,9 306,12 1274,12 1096,0 1267,-2 1304,-15 25,-9 77,-15 127,-15 48,0 82,-4 79,-9 -4,-5 25,-11 64,-13 l 70,-3 v 273 272 h -46 c -25,0 -55,-6 -67,-12 -12,-7 -65,-17 -117,-21 -154,-14 -2700,-19 -2716,-6 -9,8 -14,34 -14,79 0,38 -4,70 -10,72 -11,4 -28,264 -39,588 -4,124 -13,248 -20,276 -17,75 -11,1176 7,1182 7,2 12,22 12,53 0,27 5,49 10,49 6,0 10,21 10,48 0,33 3,43 10,32 7,-12 10,-11 15,5 12,35 40,90 48,93 4,2 7,8 7,14 0,6 11,21 24,33 14,13 22,26 19,29 -4,3 -1,6 6,6 6,0 22,11 35,25 13,14 26,25 30,25 11,0 36,27 36,39 0,6 -4,11 -10,11 -5,0 -10,7 -10,15 0,10 -10,15 -32,15 -45,0 -79,10 -72,21 3,5 -18,9 -45,9 -28,0 -51,5 -51,10 0,6 -22,10 -50,10 -38,0 -50,4 -50,15 0,11 -12,15 -49,15 -28,0 -53,5 -57,11 -4,7 -27,10 -60,7 -37,-3 -55,-1 -58,8 -3,7 0,15 7,18 7,2 -16,5 -51,5 -39,1 -61,5 -57,11 4,6 -15,10 -49,10 -43,0 -56,3 -56,15 0,11 -12,15 -49,15 -28,0 -53,5 -56,10 -3,6 -17,10 -31,10 h -24 z"
         id="path4"
         sodipodi:nodetypes="ssscccsccsccccsccccccccccscssssscscsccscsssssssscssssscssssscscssscscscssscssscssscsscssscccssssscssscssssssssscscssssccssssscsssssscsscscssssscscscssssscccccscscsssccscccscscssccscscscscscssscssccssscsscsscssscccscscccccssssssscccscssscsscsssssssscssssscscssccccccscssssssssssscscssscssscscscscsssssssssccccscccssscssccccccsccssccsscssscscssscscscscsccccccssccccsscccssssssscscscsssscscsssscssssscccssscssccsscscsssscsscssccscsscssscssssssssssssssssscscscscssssscssscccssscssscscscssscccssssscscscscssscssscccssscssssssccssscccscscssscsscsscsscscscssssscscscscscssscscssscscscccscscssccscssssccssssssscscscsscssscsssscsssscsssssscscscssscsccccsscssssssssssscsssscccccccssssscssscscsssssssssssscsccssssssccssscscssccccscssccsssscsscssccssscsssscscssscssscssssssscssssssscscsssssccccsscsssssccccssssscsccssccsscscsccsscscsssccscsscsssscscccccscccsccccssscccsccssssssscssssscccccsssscscs"
         style="fill:url(#linearGradient1281);fill-opacity:1;fill-rule:nonzero"
         inkscape:label="path4" />
      <path
         d="M 7302.7106,9522.8473 C 7169.635,9403.1076 7036.25,9279.3768 6933.7786,9186.0027 7413.9296,8787.7651 7951.3331,8264.0582 8385,7775 c 157.2331,157.8425 269.9911,268.8091 402.0326,412.9143 -348.9671,355.9241 -1048.8542,983.8426 -1484.322,1334.933 z"
         id="path8"
         sodipodi:nodetypes="ccccc"
         style="fill:url(#linearGradient1283);fill-opacity:1;fill-rule:nonzero" />
    </g>
  </g>
</svg>
